<svg version="1.1" id="Layer_1" xmlns="http://www.w3.org/2000/svg" xmlns:xlink="http://www.w3.org/1999/xlink" x="0px" y="0px"
	 width="100%" viewBox="0 0 256 256" enable-background="new 0 0 256 256" xml:space="preserve">
<path fill="#FEFEFE" opacity="1.000000" stroke="none" 
	d="
M141.000000,257.000000 
	C94.000000,257.000000 47.500004,257.000000 1.000006,257.000000 
	C1.000004,171.666672 1.000004,86.333351 1.000002,1.000018 
	C86.333321,1.000012 171.666641,1.000012 257.000000,1.000006 
	C257.000000,86.333313 257.000000,171.666626 257.000000,256.999969 
	C218.500000,257.000000 180.000000,257.000000 141.000000,257.000000 
M142.234604,224.227936 
	C142.234604,224.227936 141.922760,223.932007 141.953979,223.214569 
	C142.614609,221.871811 143.248016,220.514832 143.939804,219.188309 
	C166.556656,175.819672 193.601868,135.269028 222.427185,95.850655 
	C224.094620,93.570450 226.033463,91.394661 227.184875,88.868904 
	C227.805923,87.506523 227.557861,85.133041 226.706177,83.907944 
	C226.019760,82.920509 223.802261,82.544373 222.331436,82.672226 
	C220.571136,82.825241 218.859619,83.745995 217.166397,84.431625 
	C201.740936,90.677681 186.333923,96.969498 170.891464,103.173111 
	C169.086716,103.898117 167.100128,104.170471 164.992111,103.857552 
	C153.326752,73.765205 141.700974,43.657299 129.894562,13.620388 
	C129.209030,11.876326 127.019714,9.543415 125.600266,9.590610 
	C124.099266,9.640516 122.019638,11.952328 121.326614,13.720518 
	C108.760536,45.782021 96.376060,77.914650 83.931778,110.023941 
	C70.645699,144.305283 57.341244,178.579498 44.037262,212.853882 
	C39.282017,225.104584 32.228107,235.230942 19.028023,239.512390 
	C19.028023,241.769958 19.028023,243.837372 19.028023,245.623749 
	C40.102001,245.623749 60.845318,245.623749 81.579628,245.623749 
	C81.579628,243.624222 81.579628,241.730225 81.579628,240.130539 
	C75.690521,239.005264 70.050896,238.335373 64.659119,236.796875 
	C57.509052,234.756683 53.634926,229.523300 53.154152,222.121262 
	C52.940521,218.832169 52.755924,215.269150 53.749275,212.218277 
	C59.761440,193.753342 66.117935,175.400528 72.318092,157.131744 
	C99.200714,157.131744 125.007736,157.089172 150.813339,157.260941 
	C152.067322,157.269287 153.853683,158.908569 154.455688,160.218704 
	C156.395096,164.439209 157.895798,168.861313 159.330750,173.886795 
	C158.330292,175.790131 157.336929,177.697220 156.328278,179.596207 
	C146.646988,197.823502 136.891876,216.012512 127.399185,234.337494 
	C126.527840,236.019577 127.328171,238.567612 127.352249,240.713547 
	C129.652878,240.525406 132.375656,241.070770 134.185226,240.029373 
	C145.431671,233.556961 156.147705,226.098450 167.653122,220.154419 
	C189.239700,209.002182 211.251816,198.674393 233.065567,187.960190 
	C236.540619,186.253357 241.458466,185.298218 240.848480,180.159363 
	C240.238327,175.019211 235.147995,175.326233 231.434525,174.352493 
	C226.773758,173.130325 221.992081,172.351318 217.366104,171.021088 
	C214.554520,170.212601 211.632111,168.723785 210.005508,172.223816 
	C208.234085,176.035477 211.313431,177.711105 214.166809,178.816055 
	C217.428986,180.079330 220.865601,180.892151 224.742538,182.055573 
	C211.018723,188.652451 197.819122,194.612732 184.981430,201.270813 
	C170.654465,208.701294 156.656189,216.765564 142.234604,224.227936 
M204.670624,170.261078 
	C202.646881,169.953537 200.587418,169.329910 198.623520,169.551895 
	C198.107040,169.610275 197.215607,172.597168 197.715179,173.673538 
	C198.233322,174.789948 200.972427,176.152710 201.443329,175.777985 
	C202.945419,174.582687 203.845093,172.630325 204.670624,170.261078 
z"/>
<path fill="#050606" opacity="1.000000" stroke="none" 
	d="
M159.565643,173.205688 
	C157.895798,168.861313 156.395096,164.439209 154.455688,160.218704 
	C153.853683,158.908569 152.067322,157.269287 150.813339,157.260941 
	C125.007736,157.089172 99.200714,157.131744 72.318092,157.131744 
	C66.117935,175.400528 59.761440,193.753342 53.749275,212.218277 
	C52.755924,215.269150 52.940521,218.832169 53.154152,222.121262 
	C53.634926,229.523300 57.509052,234.756683 64.659119,236.796875 
	C70.050896,238.335373 75.690521,239.005264 81.579628,240.130539 
	C81.579628,241.730225 81.579628,243.624222 81.579628,245.623749 
	C60.845318,245.623749 40.102001,245.623749 19.028023,245.623749 
	C19.028023,243.837372 19.028023,241.769958 19.028023,239.512390 
	C32.228107,235.230942 39.282017,225.104584 44.037262,212.853882 
	C57.341244,178.579498 70.645699,144.305283 83.931778,110.023941 
	C96.376060,77.914650 108.760536,45.782021 121.326614,13.720518 
	C122.019638,11.952328 124.099266,9.640516 125.600266,9.590610 
	C127.019714,9.543415 129.209030,11.876326 129.894562,13.620388 
	C141.700974,43.657299 153.326752,73.765205 164.903839,104.499947 
	C155.602859,108.089828 146.390152,111.037315 137.088211,113.616089 
	C129.416336,93.018929 121.833710,72.790482 113.815094,51.398964 
	C100.790070,85.235489 88.327049,117.612045 75.837112,150.058502 
	C101.110260,150.058502 125.759727,150.058502 150.715561,150.058502 
	C147.239380,140.625961 143.960037,131.727493 140.946701,122.572433 
	C150.372971,119.251640 159.533218,116.187477 168.784195,113.482452 
	C172.567581,123.077370 176.260239,132.313156 179.800049,141.832458 
	C172.953339,152.479202 166.259491,162.842438 159.565643,173.205688 
z"/>
<path fill="#099393" opacity="1.000000" stroke="none" 
	d="
M159.448196,173.546234 
	C166.259491,162.842438 172.953339,152.479202 180.109100,141.633972 
	C190.446930,126.682739 200.322830,112.213501 210.198746,97.744255 
	C209.988632,97.447014 209.778534,97.149765 209.568420,96.852524 
	C195.943451,102.276115 182.318466,107.699707 168.693481,113.123306 
	C159.533218,116.187477 150.372971,119.251640 140.553543,122.558670 
	C137.021027,123.346230 134.147675,123.890938 130.352203,124.610451 
	C133.536087,128.216522 136.467255,130.928543 138.559937,134.180191 
	C139.510376,135.656998 138.799835,138.202759 138.842758,140.263626 
	C136.948822,139.883011 134.565674,140.097107 133.249420,139.014267 
	C128.640015,135.222351 124.257561,131.120529 120.090279,126.842812 
	C118.540634,125.252090 116.434502,122.101471 117.035957,120.989731 
	C118.040733,119.132500 120.882896,117.888924 123.193985,117.199341 
	C127.767639,115.834595 132.506744,115.024307 137.177444,113.984802 
	C146.390152,111.037315 155.602859,108.089828 165.006714,104.897514 
	C167.100128,104.170471 169.086716,103.898117 170.891464,103.173111 
	C186.333923,96.969498 201.740936,90.677681 217.166397,84.431625 
	C218.859619,83.745995 220.571136,82.825241 222.331436,82.672226 
	C223.802261,82.544373 226.019760,82.920509 226.706177,83.907944 
	C227.557861,85.133041 227.805923,87.506523 227.184875,88.868904 
	C226.033463,91.394661 224.094620,93.570450 222.427185,95.850655 
	C193.601868,135.269028 166.556656,175.819672 143.939804,219.188309 
	C143.248016,220.514832 142.614609,221.871811 141.721619,223.672729 
	C141.831116,224.271927 142.172974,224.412933 142.514862,224.553955 
	C156.656189,216.765564 170.654465,208.701294 184.981430,201.270813 
	C197.819122,194.612732 211.018723,188.652451 224.742538,182.055573 
	C220.865601,180.892151 217.428986,180.079330 214.166809,178.816055 
	C211.313431,177.711105 208.234085,176.035477 210.005508,172.223816 
	C211.632111,168.723785 214.554520,170.212601 217.366104,171.021088 
	C221.992081,172.351318 226.773758,173.130325 231.434525,174.352493 
	C235.147995,175.326233 240.238327,175.019211 240.848480,180.159363 
	C241.458466,185.298218 236.540619,186.253357 233.065567,187.960190 
	C211.251816,198.674393 189.239700,209.002182 167.653122,220.154419 
	C156.147705,226.098450 145.431671,233.556961 134.185226,240.029373 
	C132.375656,241.070770 129.652878,240.525406 127.352249,240.713547 
	C127.328171,238.567612 126.527840,236.019577 127.399185,234.337494 
	C136.891876,216.012512 146.646988,197.823502 156.328278,179.596207 
	C157.336929,177.697220 158.330292,175.790131 159.448196,173.546234 
z"/>
<path fill="#199A9A" opacity="1.000000" stroke="none" 
	d="
M204.824036,170.615723 
	C203.845093,172.630325 202.945419,174.582687 201.443329,175.777985 
	C200.972427,176.152710 198.233322,174.789948 197.715179,173.673538 
	C197.215607,172.597168 198.107040,169.610275 198.623520,169.551895 
	C200.587418,169.329910 202.646881,169.953537 204.824036,170.615723 
z"/>
<path fill="#F9F9F9" opacity="1.000000" stroke="none" 
	d="
M137.088211,113.616089 
	C132.506744,115.024307 127.767639,115.834595 123.193985,117.199341 
	C120.882896,117.888924 118.040733,119.132500 117.035957,120.989731 
	C116.434502,122.101471 118.540634,125.252090 120.090279,126.842812 
	C124.257561,131.120529 128.640015,135.222351 133.249420,139.014267 
	C134.565674,140.097107 136.948822,139.883011 138.842758,140.263626 
	C138.799835,138.202759 139.510376,135.656998 138.559937,134.180191 
	C136.467255,130.928543 133.536087,128.216522 130.352203,124.610451 
	C134.147675,123.890938 137.021027,123.346230 140.287537,122.815292 
	C143.960037,131.727493 147.239380,140.625961 150.715561,150.058502 
	C125.759727,150.058502 101.110260,150.058502 75.837112,150.058502 
	C88.327049,117.612045 100.790070,85.235489 113.815094,51.398964 
	C121.833710,72.790482 129.416336,93.018929 137.088211,113.616089 
M142.656677,141.129013 
	C139.791611,142.236191 137.924973,143.974457 140.157059,146.998978 
	C140.833038,147.914948 142.859070,148.531616 143.979355,148.227356 
	C145.108139,147.920776 146.842850,145.959747 146.617676,145.320374 
	C146.060257,143.737610 144.534531,142.495865 142.656677,141.129013 
z"/>
<path fill="#F7FBFB" opacity="1.000000" stroke="none" 
	d="
M168.784195,113.482437 
	C182.318466,107.699707 195.943451,102.276115 209.568420,96.852524 
	C209.778534,97.149765 209.988632,97.447014 210.198746,97.744255 
	C200.322830,112.213501 190.446930,126.682739 180.261963,141.350464 
	C176.260239,132.313156 172.567581,123.077370 168.784195,113.482437 
z"/>
<path fill="#FEFEFE" opacity="1.000000" stroke="none" 
	d="
M142.374725,224.390930 
	C142.172974,224.412933 141.831116,224.271927 141.705994,224.031464 
	C141.922760,223.932007 142.234604,224.227936 142.374725,224.390930 
z"/>
<path fill="#1E9C9C" opacity="1.000000" stroke="none" 
	d="
M143.027283,141.123047 
	C144.534531,142.495865 146.060257,143.737610 146.617676,145.320374 
	C146.842850,145.959747 145.108139,147.920776 143.979355,148.227356 
	C142.859070,148.531616 140.833038,147.914948 140.157059,146.998978 
	C137.924973,143.974457 139.791611,142.236191 143.027283,141.123047 
z"/>
</svg>